<svg xmlns="http://www.w3.org/2000/svg" xml:space="preserve" width="2048" height="2048" style="shape-rendering:geometricPrecision;text-rendering:geometricPrecision;image-rendering:optimizeQuality;fill-rule:evenodd;clip-rule:evenodd"><defs><clipPath id="id0"><path d="M1024 0c565.539 0 1024 458.461 1024 1024s-458.461 1024-1024 1024S0 1589.539 0 1024 458.461 0 1024 0z"/></clipPath><style>.fil1{fill:#6a1b9a}</style></defs><g id="Layer_x0020_1"><path d="M1024 0c565.539 0 1024 458.461 1024 1024s-458.461 1024-1024 1024S0 1589.539 0 1024 458.461 0 1024 0z" style="fill:#8e24aa"/><g style="clip-path:url(#id0)"><g id="_461739512"><path id="_4613377281" class="fil1" d="M1458.58 692.127 2594.46 1828.01v22.86L1458.58 714.987z"/><path id="_461336648" class="fil1" d="M1458.58 714.987 2594.46 1850.87v217.05L1458.58 932.038z"/><path id="_461346944" class="fil1" d="m1584 1019.58 1135.88 1135.88-26 37.22L1558 1056.8z"/><path id="_461342912" class="fil1" d="m1558 1056.8 1135.88 1135.88-78.16-54.55-1135.88-1135.89z"/><path id="_461339504" class="fil1" d="m1479.84 1002.24 1135.88 1135.89v394.25L1479.84 1396.49z"/><path id="_461346368" class="fil1" d="m1479.84 1396.49 1135.88 1135.89v22.79L1479.84 1419.29z"/><path id="_461328344" class="fil1" d="m1479.84 1419.29 1135.88 1135.88h-22.79L1457.05 1419.29z"/><path id="_461328704" class="fil1" d="m1115.17 1168.58 1135.88 1135.88h-90.84L1024.33 1168.58z"/><path id="_461353088" class="fil1" d="M568.167 1002.24 1704.05 2138.12l-78.17 54.56L489.997 1056.8z"/><path id="_461328920" class="fil1" d="m1024.33 1168.58 1135.88 1135.88h-.32L1024 1168.58z"/><path id="_461339216" class="fil1" d="m1024 1168.58 1135.89 1135.88h-91.17L932.839 1168.58z"/><path id="_461345960" class="fil1" d="M932.839 1168.58 2068.72 2304.46v227.92L932.839 1396.49z"/><path id="_461339432" class="fil1" d="m1137.97 1419.29 1135.88 1135.88h-22.8L1115.17 1419.29z"/><path id="_461331752" class="fil1" d="M932.839 1396.49 2068.72 2532.38v22.7L932.839 1419.2z"/><path id="_461328008" class="fil1" d="M932.839 1419.2 2068.72 2555.08h-22.79L910.046 1419.2z"/><path id="_461332400" class="fil1" d="M910.046 1419.2 2045.93 2555.08h-319.09L590.96 1419.2z"/><path id="_461333552" class="fil1" d="m590.96 1419.2 1135.88 1135.88h-22.79L568.167 1419.2z"/><path id="_461342864" class="fil1" d="m1457.05 1419.29 1135.88 1135.88h-319.08L1137.97 1419.29z"/><path id="_461745320" class="fil1" d="M1274.72 692.127H1458.58v239.911L1584 1019.58l-26 37.22-78.16-54.56v417.05h-364.67v-250.71H932.839v250.62H568.167v-416.96l-78.17 54.56L464 1019.58l547.01-381.793 12.99-9.073 13 9.073 213.4 148.946v-94.606z"/></g></g><path d="M1024 0c565.539 0 1024 458.461 1024 1024s-458.461 1024-1024 1024S0 1589.539 0 1024 458.461 0 1024 0z" style="fill:none"/><path style="fill:#f57c00;fill-rule:nonzero" d="M1250.4 836.454V692.127H1458.58V947.97h-48.64l-110.91-111.516z"/><path style="fill:#ffb74d;fill-rule:nonzero" d="M1024 1168.58h-91.161v250.62H568.167V974.154l10.151-6.788 433.052-289.577 12.63-8.447z"/><path style="fill:#ffa726;fill-rule:nonzero" d="M1457.05 1419.29h-341.88v-250.71H1024V669.342l.01-.006.74.491 11.91 7.962 433.03 289.577 10.15 6.788v445.136z"/><path style="fill:#e65100;fill-rule:nonzero" d="m1558 1056.8-534-372.725L489.997 1056.8 464 1019.58l547.01-381.793 12.99-9.073 13 9.073 547 381.793z"/></g></svg>